<svg width="33" height="33" viewBox="0 0 33 33" fill="none" xmlns="http://www.w3.org/2000/svg">
<path d="M16.0865 32.4859C17 32.4859 17.7405 31.7453 17.7405 30.8318C17.7405 29.9184 17 29.1778 16.0865 29.1778C15.173 29.1778 14.4325 29.9184 14.4325 30.8318C14.4325 31.7453 15.173 32.4859 16.0865 32.4859Z" fill="#2E79BD"/>
<path d="M29.0519 32.4859C29.9654 32.4859 30.7059 31.7453 30.7059 30.8318C30.7059 29.9184 29.9654 29.1778 29.0519 29.1778C28.1384 29.1778 27.3979 29.9184 27.3979 30.8318C27.3979 31.7453 28.1384 32.4859 29.0519 32.4859Z" fill="#2E79BD"/>
<path d="M31.5839 24.8481H14.0837L13.3954 22.6009L30.6917 22.5183C31.1073 22.4859 31.4955 22.2984 31.7792 21.993C32.0629 21.6876 32.2214 21.2867 32.2231 20.8698L32.0648 10.3634C32.205 10.3634 32.34 10.31 32.4422 10.214C32.5443 10.118 32.6061 9.98671 32.6149 9.84679C32.6237 9.70687 32.5788 9.56887 32.4894 9.46088C32.4 9.3529 32.2728 9.28305 32.1337 9.26556L8.34694 6.15457L6.61592 0.51416H1.41602C1.1422 0.51416 0.879606 0.622932 0.685992 0.816546C0.492377 1.01016 0.383606 1.27276 0.383606 1.54657C0.383606 1.82038 0.492377 2.08298 0.685992 2.27659C0.879606 2.47021 1.1422 2.57898 1.41602 2.57898H5.08795L12.5557 26.9129H31.5839C31.8577 26.9129 32.1203 26.8041 32.3139 26.6105C32.5075 26.4169 32.6163 26.1543 32.6163 25.8805C32.6163 25.6066 32.5075 25.3441 32.3139 25.1504C32.1203 24.9568 31.8577 24.8481 31.5839 24.8481V24.8481Z" fill="#2D3E50"/>
</svg>
